<svg xmlns="http://www.w3.org/2000/svg" width="360" height="360" viewBox="0 0 360 360"><defs><clipPath id="round"><circle cx="180" cy="180" r="180"/></clipPath></defs><g clip-path="url(#round)"><circle cx="180" cy="180" r="180" fill="#080D13"/><circle cx="180" cy="180" r="174" fill="none" stroke="#26313B"/><text x="180" y="31" text-anchor="middle" fill="#AFBDC7" font-size="12" font-family="Arial,sans-serif">82%</text><text x="180" y="66" text-anchor="middle" fill="#F7F1E6" font-size="31" font-family="Georgia,serif">Shema</text><text x="180" y="88" text-anchor="middle" fill="#AFBDC7" font-size="14" font-family="Arial,sans-serif">NRSV · Audio Bible</text><a href="#books" data-screen="books"><rect x="66" y="104" width="100" height="72" rx="18" fill="#17212B"/><svg x="104" y="114" width="24" height="24" viewBox="0 0 24 24"><path d="M3 5 Q8 3 12 6 Q16 3 21 5 V20 Q16 18 12 21 Q8 18 3 20 Z M12 6 V21" fill="none" stroke="#E8BE78" stroke-width="1.8" stroke-linecap="round" stroke-linejoin="round"/></svg><text x="116" y="162" text-anchor="middle" fill="#F7F1E6" font-size="16" font-family="Arial,sans-serif">Bible</text></a><a href="#year" data-screen="year"><rect x="194" y="104" width="100" height="72" rx="18" fill="#17212B"/><svg x="232" y="114" width="24" height="24" viewBox="0 0 24 24"><path d="M5 5 H19 V21 H5 Z M8 3 V7 M16 3 V7 M5 10 H19 M9 15 L11 17 L16 12" fill="none" stroke="#E8BE78" stroke-width="1.8" stroke-linecap="round" stroke-linejoin="round"/></svg><text x="244" y="162" text-anchor="middle" fill="#F7F1E6" font-size="16" font-family="Arial,sans-serif">In a Year</text></a><a href="#library" data-screen="library"><rect x="66" y="188" width="100" height="72" rx="18" fill="#17212B"/><svg x="104" y="198" width="24" height="24" viewBox="0 0 24 24"><path d="M3 6 H10 L12 9 H21 V20 H3 Z" fill="none" stroke="#E8BE78" stroke-width="1.8" stroke-linecap="round" stroke-linejoin="round"/></svg><text x="116" y="246" text-anchor="middle" fill="#F7F1E6" font-size="16" font-family="Arial,sans-serif">Library</text></a><a href="#more" data-screen="more"><rect x="194" y="188" width="100" height="72" rx="18" fill="#17212B"/><svg x="232" y="198" width="24" height="24" viewBox="0 0 24 24"><path d="M5 12 h.01 M12 12 h.01 M19 12 h.01" fill="none" stroke="#E8BE78" stroke-width="1.8" stroke-linecap="round" stroke-linejoin="round"/></svg><text x="244" y="246" text-anchor="middle" fill="#F7F1E6" font-size="16" font-family="Arial,sans-serif">More</text></a><a href="#player" data-screen="player"><rect x="116" y="280" width="128" height="64" rx="18" fill="#17212B"/><svg x="133" y="299" width="24" height="24" viewBox="0 0 24 24"><path d="M8 4 L20 12 L8 20 Z" fill="none" stroke="#E8BE78" stroke-width="1.8" stroke-linecap="round" stroke-linejoin="round"/></svg><text x="191" y="318" text-anchor="middle" fill="#F7F1E6" font-size="17" font-family="Arial,sans-serif">Resume</text></a></g></svg>