<svg xmlns="http://www.w3.org/2000/svg" width="360" height="360" viewBox="0 0 360 360"><defs><clipPath id="round"><circle cx="180" cy="180" r="180"/></clipPath></defs><g clip-path="url(#round)"><circle cx="180" cy="180" r="180" fill="#080D13"/><circle cx="180" cy="180" r="174" fill="none" stroke="#26313B"/><text x="180" y="31" text-anchor="middle" fill="#AFBDC7" font-size="12" font-family="Arial,sans-serif">82%</text><text x="180" y="47" text-anchor="middle" fill="#AFBDC7" font-size="14" font-family="Arial,sans-serif">NRSV</text><text x="180" y="82" text-anchor="middle" fill="#F7F1E6" font-size="31" font-family="Georgia,serif">John</text><text x="180" y="108" text-anchor="middle" fill="#E8BE78" font-size="20" font-family="Arial,sans-serif">Chapter 3</text><rect x="76" y="129" width="208" height="5" rx="2" fill="#33404A"/><rect x="76" y="129" width="78" height="5" rx="2" fill="#E8BE78"/><text x="76" y="156" text-anchor="start" fill="#AFBDC7" font-size="14" font-family="Arial,sans-serif">1:48</text><text x="284" y="156" text-anchor="end" fill="#AFBDC7" font-size="14" font-family="Arial,sans-serif">4:49</text><a href="#player" data-screen="player"><rect x="64" y="179" width="64" height="64" rx="32.0" fill="#17212B"/><svg x="83.0" y="198.0" width="26" height="26" viewBox="0 0 24 24"><path d="M5 5 V19 M19 5 L8 12 L19 19 Z" fill="none" stroke="#E8BE78" stroke-width="1.8" stroke-linecap="round" stroke-linejoin="round"/></svg></a><a href="#player-paused" data-screen="player-paused"><rect x="140" y="171" width="80" height="80" rx="40.0" fill="#E8BE78"/><svg x="167.0" y="198.0" width="26" height="26" viewBox="0 0 24 24"><path d="M8 5 V19 M16 5 V19" fill="none" stroke="#080D13" stroke-width="1.8" stroke-linecap="round" stroke-linejoin="round"/></svg></a><a href="#player" data-screen="player"><rect x="232" y="179" width="64" height="64" rx="32.0" fill="#17212B"/><svg x="251.0" y="198.0" width="26" height="26" viewBox="0 0 24 24"><path d="M19 5 V19 M5 5 L16 12 L5 19 Z" fill="none" stroke="#E8BE78" stroke-width="1.8" stroke-linecap="round" stroke-linejoin="round"/></svg></a><a href="#home" data-screen="home"><rect x="104" y="267" width="64" height="64" rx="32.0" fill="#17212B"/><svg x="123.0" y="286.0" width="26" height="26" viewBox="0 0 24 24"><path d="M15 5 L8 12 L15 19" fill="none" stroke="#E8BE78" stroke-width="1.8" stroke-linecap="round" stroke-linejoin="round"/></svg></a><a href="#player-options" data-screen="player-options"><rect x="192" y="267" width="64" height="64" rx="32.0" fill="#17212B"/><svg x="211.0" y="286.0" width="26" height="26" viewBox="0 0 24 24"><path d="M5 12 h.01 M12 12 h.01 M19 12 h.01" fill="none" stroke="#E8BE78" stroke-width="1.8" stroke-linecap="round" stroke-linejoin="round"/></svg></a></g></svg>