<svg xmlns="http://www.w3.org/2000/svg" width="360" height="360" viewBox="0 0 360 360"><defs><clipPath id="round"><circle cx="180" cy="180" r="180"/></clipPath></defs><g clip-path="url(#round)"><circle cx="180" cy="180" r="180" fill="#080D13"/><circle cx="180" cy="180" r="174" fill="none" stroke="#26313B"/><text x="180" y="31" text-anchor="middle" fill="#AFBDC7" font-size="12" font-family="Arial,sans-serif">82%</text><a href="#back" data-screen="back"><rect x="60" y="52" width="64" height="64" rx="32.0" fill="#17212B"/><svg x="79.0" y="71.0" width="26" height="26" viewBox="0 0 24 24"><path d="M15 5 L8 12 L15 19" fill="none" stroke="#E8BE78" stroke-width="1.8" stroke-linecap="round" stroke-linejoin="round"/></svg></a><text x="211" y="91" text-anchor="middle" fill="#F7F1E6" font-size="21" font-family="Arial,sans-serif">Edit saved</text><a href="#saved" data-screen="saved"><rect x="60" y="124" width="240" height="64" rx="18" fill="#17212B"/><svg x="76" y="144" width="24" height="24" viewBox="0 0 24 24"><path d="M12 21 L4 13 C-2 5 7 1 12 7 C17 1 26 5 20 13 Z" fill="none" stroke="#E8BE78" stroke-width="1.8" stroke-linecap="round" stroke-linejoin="round"/></svg><text x="112" y="150" text-anchor="start" fill="#F7F1E6" font-size="18" font-family="Arial,sans-serif">John · Chapter 3</text><text x="112" y="171" text-anchor="start" fill="#AFBDC7" font-size="14" font-family="Arial,sans-serif">Tap to remove · demo</text></a><a href="#saved" data-screen="saved"><rect x="60" y="200" width="240" height="64" rx="18" fill="#17212B"/><svg x="76" y="220" width="24" height="24" viewBox="0 0 24 24"><path d="M12 21 L4 13 C-2 5 7 1 12 7 C17 1 26 5 20 13 Z" fill="none" stroke="#E8BE78" stroke-width="1.8" stroke-linecap="round" stroke-linejoin="round"/></svg><text x="112" y="226" text-anchor="start" fill="#F7F1E6" font-size="18" font-family="Arial,sans-serif">Psalm 23</text><text x="112" y="247" text-anchor="start" fill="#AFBDC7" font-size="14" font-family="Arial,sans-serif">Tap to remove · demo</text></a><a href="#saved" data-screen="saved"><rect x="116" y="280" width="128" height="64" rx="18" fill="#17212B"/><svg x="133" y="299" width="24" height="24" viewBox="0 0 24 24"><path d="M4 12 L9 17 L20 6" fill="none" stroke="#E8BE78" stroke-width="1.8" stroke-linecap="round" stroke-linejoin="round"/></svg><text x="191" y="318" text-anchor="middle" fill="#F7F1E6" font-size="17" font-family="Arial,sans-serif">Done</text></a></g></svg>