<svg xmlns="http://www.w3.org/2000/svg" width="360" height="360" viewBox="0 0 360 360"><defs><clipPath id="round"><circle cx="180" cy="180" r="180"/></clipPath></defs><g clip-path="url(#round)"><circle cx="180" cy="180" r="180" fill="#080D13"/><circle cx="180" cy="180" r="174" fill="none" stroke="#26313B"/><text x="180" y="31" text-anchor="middle" fill="#AFBDC7" font-size="12" font-family="Arial,sans-serif">82%</text><a href="#back" data-screen="back"><rect x="60" y="52" width="64" height="64" rx="32.0" fill="#17212B"/><svg x="79.0" y="71.0" width="26" height="26" viewBox="0 0 24 24"><path d="M15 5 L8 12 L15 19" fill="none" stroke="#E8BE78" stroke-width="1.8" stroke-linecap="round" stroke-linejoin="round"/></svg></a><text x="211" y="91" text-anchor="middle" fill="#F7F1E6" font-size="21" font-family="Arial,sans-serif">Volume</text><text x="180" y="163" text-anchor="middle" fill="#E8BE78" font-size="40" font-family="Arial,sans-serif">70%</text><a href="#volume-down" data-screen="volume-down"><rect x="100" y="188" width="64" height="64" rx="32.0" fill="#17212B"/><svg x="119.0" y="207.0" width="26" height="26" viewBox="0 0 24 24"><path d="M5 12 H19" fill="none" stroke="#E8BE78" stroke-width="1.8" stroke-linecap="round" stroke-linejoin="round"/></svg></a><a href="#volume-up" data-screen="volume-up"><rect x="196" y="188" width="64" height="64" rx="32.0" fill="#17212B"/><svg x="215.0" y="207.0" width="26" height="26" viewBox="0 0 24 24"><path d="M5 12 H19 M12 5 V19" fill="none" stroke="#E8BE78" stroke-width="1.8" stroke-linecap="round" stroke-linejoin="round"/></svg></a><a href="#back" data-screen="back"><rect x="116" y="280" width="128" height="64" rx="18" fill="#17212B"/><svg x="133" y="299" width="24" height="24" viewBox="0 0 24 24"><path d="M4 12 L9 17 L20 6" fill="none" stroke="#E8BE78" stroke-width="1.8" stroke-linecap="round" stroke-linejoin="round"/></svg><text x="191" y="318" text-anchor="middle" fill="#F7F1E6" font-size="17" font-family="Arial,sans-serif">Done</text></a></g></svg>